<?xml version="1.0" encoding="UTF-8" standalone="no"?>
<svg
   xmlns:dc="http://purl.org/dc/elements/1.1/"
   xmlns:cc="http://creativecommons.org/ns#"
   xmlns:rdf="http://www.w3.org/1999/02/22-rdf-syntax-ns#"
   xmlns:svg="http://www.w3.org/2000/svg"
   xmlns="http://www.w3.org/2000/svg"
   viewBox="0 0 349.25333 482.85333"
   height="482.85333"
   width="349.25333"
   xml:space="preserve"
   id="svg2"
   version="1.1"><metadata
     id="metadata8"><rdf:RDF><cc:Work
         rdf:about=""><dc:format>image/svg+xml</dc:format><dc:type
           rdf:resource="http://purl.org/dc/dcmitype/StillImage" /></cc:Work></rdf:RDF></metadata><defs
     id="defs6" /><g
     transform="matrix(1.3333333,0,0,-1.3333333,0,482.85333)"
     id="g10"><g
       transform="scale(0.1)"
       id="g12"><path
         id="path14"
         style="fill:#ffffff;fill-opacity:1;fill-rule:nonzero;stroke:none"
         d="m 1629.7,1878.87 -300.49,-521.61 h 600.89 l -300.4,521.61" /><path
         id="path16"
         style="fill:none;stroke:#ffffff;stroke-width:10;stroke-linecap:butt;stroke-linejoin:miter;stroke-miterlimit:10;stroke-dasharray:none;stroke-opacity:1"
         d="M 1629.7,1878.87 1329.21,1357.26 H 1930.1 Z" /><path
         id="path18"
         style="fill:#ffffff;fill-opacity:1;fill-rule:nonzero;stroke:none"
         d="m 2310.14,1878.57 -300.17,-521.3 h 600.77 l -300.6,521.3" /><path
         id="path20"
         style="fill:none;stroke:#ffffff;stroke-width:10;stroke-linecap:butt;stroke-linejoin:miter;stroke-miterlimit:10;stroke-dasharray:none;stroke-opacity:1"
         d="m 2310.14,1878.57 -300.17,-521.3 h 600.77 z" /><path
         id="path22"
         style="fill:#ffffff;fill-opacity:1;fill-rule:nonzero;stroke:none"
         d="M 1288.94,1380.34 988.238,1902.05 H 1589.36 L 1288.94,1380.34" /><path
         id="path24"
         style="fill:none;stroke:#ffffff;stroke-width:10;stroke-linecap:butt;stroke-linejoin:miter;stroke-miterlimit:10;stroke-dasharray:none;stroke-opacity:1"
         d="M 1288.94,1380.34 988.238,1902.05 H 1589.36 Z" /><path
         id="path26"
         style="fill:#ffffff;fill-opacity:1;fill-rule:nonzero;stroke:none"
         d="m 1970.04,1380.34 -300.35,521.71 h 600.82 l -300.47,-521.71" /><path
         id="path28"
         style="fill:none;stroke:#ffffff;stroke-width:10;stroke-linecap:butt;stroke-linejoin:miter;stroke-miterlimit:10;stroke-dasharray:none;stroke-opacity:1"
         d="m 1970.04,1380.34 -300.35,521.71 h 600.82 z" /><path
         id="path30"
         style="fill:#ffffff;fill-opacity:1;fill-rule:nonzero;stroke:none"
         d="m 1969.84,2470.02 300.67,-521.71 h -600.82 l 300.15,521.71" /><path
         id="path32"
         style="fill:none;stroke:#ffffff;stroke-width:10;stroke-linecap:butt;stroke-linejoin:miter;stroke-miterlimit:10;stroke-dasharray:none;stroke-opacity:1"
         d="m 1969.84,2470.02 300.67,-521.71 h -600.82 z" /><path
         id="path34"
         style="fill:#ffffff;fill-opacity:1;fill-rule:nonzero;stroke:none"
         d="m 1629.67,1971.66 -300.52,521.71 h 601.04 l -300.52,-521.71" /><path
         id="path36"
         style="fill:none;stroke:#ffffff;stroke-width:10;stroke-linecap:butt;stroke-linejoin:miter;stroke-miterlimit:10;stroke-dasharray:none;stroke-opacity:1"
         d="m 1629.67,1971.66 -300.52,521.71 h 601.04 z" /><path
         id="path38"
         style="fill:#ffffff;fill-opacity:1;fill-rule:nonzero;stroke:none"
         d="M 1307.31,3611.43 1615.57,3079.32 622.902,1357.26 H 8.69531 L 1307.31,3611.43" /><path
         id="path40"
         style="fill:none;stroke:#ffffff;stroke-width:10;stroke-linecap:butt;stroke-linejoin:miter;stroke-miterlimit:10;stroke-dasharray:none;stroke-opacity:1"
         d="M 1307.31,3611.43 1615.57,3079.32 622.902,1357.26 H 8.69531 Z" /><path
         id="path42"
         style="fill:#ffffff;fill-opacity:1;fill-rule:nonzero;stroke:none"
         d="M 1237.67,18.1484 623.352,1084.77 8.65234,18.1484 H 283.23 L 387.301,198.75 h 471.84 L 963.094,18.1484 Z M 623.363,608.391 744.293,398.281 h -242 l 121.07,210.11" /><path
         id="path44"
         style="fill:none;stroke:#ffffff;stroke-width:10;stroke-linecap:butt;stroke-linejoin:miter;stroke-miterlimit:10;stroke-dasharray:none;stroke-opacity:1"
         d="M 1237.67,18.1484 623.352,1084.77 8.65234,18.1484 H 283.23 L 387.301,198.75 h 471.84 L 963.094,18.1484 Z M 623.363,608.391 744.293,398.281 h -242 z" /><path
         id="path46"
         style="fill:#ffffff;fill-opacity:1;fill-rule:nonzero;stroke:none"
         d="m 1770.33,592.121 v 199.098 c -101.06,27.902 -221.65,16.972 -309.96,-67.879 v 66.109 H 1250.79 V 19.2305 h 209.58 V 385.48 c 0,107.032 93.3,192 177.98,205.891 59.14,9.688 131.76,0.77 131.98,0.75" /><path
         id="path48"
         style="fill:none;stroke:#ffffff;stroke-width:10;stroke-linecap:butt;stroke-linejoin:miter;stroke-miterlimit:10;stroke-dasharray:none;stroke-opacity:1"
         d="m 1770.33,592.121 v 199.098 c -101.06,27.902 -221.65,16.972 -309.96,-67.879 v 66.109 H 1250.79 V 19.2305 h 209.58 V 385.48 c 0,107.032 93.3,192 177.98,205.891 59.14,9.688 131.76,0.77 131.98,0.75" /><path
         id="path50"
         style="fill:#ffffff;fill-opacity:1;fill-rule:nonzero;stroke:none"
         d="M 2610.78,19.2305 V 789.449 h -211.4 v -64.801 c -65.24,51 -146.45,81.622 -234.83,81.622 -214.32,0 -388.07,-178.098 -388.07,-397.801 C 1776.48,188.762 1950.23,5 2164.55,5 c 88.38,0 169.59,36.2813 234.83,87.2813 V 19.2305 Z M 2396.39,408.469 c 0,-112.91 -91.53,-204.438 -204.43,-204.438 -112.91,0 -204.43,91.528 -204.43,204.438 0,112.902 91.52,204.429 204.43,204.429 112.9,0 204.43,-91.527 204.43,-204.429" /><path
         id="path52"
         style="fill:none;stroke:#ffffff;stroke-width:10;stroke-linecap:butt;stroke-linejoin:miter;stroke-miterlimit:10;stroke-dasharray:none;stroke-opacity:1"
         d="M 2610.78,19.2305 V 789.449 h -211.4 v -64.801 c -65.24,51 -146.45,81.622 -234.83,81.622 -214.32,0 -388.07,-178.098 -388.07,-397.801 C 1776.48,188.762 1950.23,5 2164.55,5 c 88.38,0 169.59,36.2813 234.83,87.2813 V 19.2305 Z M 2396.39,408.469 c 0,-112.91 -91.53,-204.438 -204.43,-204.438 -112.91,0 -204.43,91.528 -204.43,204.438 0,112.902 91.52,204.429 204.43,204.429 112.9,0 204.43,-91.527 204.43,-204.429" /></g></g></svg>